<?xml version="1.0" encoding="UTF-8"?><svg xmlns="http://www.w3.org/2000/svg" xmlns:xlink="http://www.w3.org/1999/xlink" height="1059pt" style="width:1238px;height:1059px;" version="1.1" viewBox="0 0 1238 1059" width="1238pt">
    <defs>
        <filter height="300%" id="f1" width="300%" x="-1" y="-1">
            <feGaussianBlur result="blurOut" stdDeviation="2.0"/>
            <feColorMatrix in="blurOut" result="blurOut2" type="matrix" values="0 0 0 0 0 0 0 0 0 0 0 0 0 0 0 0 0 0 .4 0"/>
            <feOffset dx="4.0" dy="4.0" in="blurOut2" result="blurOut3"/>
            <feBlend in="SourceGraphic" in2="blurOut3" mode="normal"/>
        </filter>
    </defs>
    <g>
        <rect fill="#FEFECE" filter="url(#f1)" height="29.3105" style="stroke: #A80036; stroke-width: 1.5;" width="64" x="277.5" y="73.6211"/>
        <text fill="#000000" font-size="13" lengthAdjust="spacingAndGlyphs" textLength="50" x="284.5" y="93.6211">Request</text>
        <rect fill="#FEFECE" filter="url(#f1)" height="29.3105" style="stroke: #A80036; stroke-width: 1.5;" width="109" x="418" y="117.9316"/>
        <text fill="#000000" font-size="13" lengthAdjust="spacingAndGlyphs" textLength="95" x="425" y="137.9316">UpdateBuilding</text>
        <rect fill="#FFFFFF" filter="url(#f1)" height="85.9316" style="stroke: #000000; stroke-width: 2.0;" width="365" x="210" y="198.5527"/>
        <rect fill="#FFFFFF" filter="url(#f1)" height="170.2422" style="stroke: #000000; stroke-width: 2.0;" width="432.5" x="701" y="357.1055"/>
        <rect fill="#FEFECE" filter="url(#f1)" height="29.3105" style="stroke: #A80036; stroke-width: 1.5;" width="116" x="882.5" y="399.416"/>
        <text fill="#000000" font-size="13" lengthAdjust="spacingAndGlyphs" textLength="102" x="889.5" y="419.416">JDBCConnection</text>
        <rect fill="#FEFECE" filter="url(#f1)" height="29.3105" style="stroke: #A80036; stroke-width: 1.5;" width="107" x="1012.5" y="443.7266"/>
        <text fill="#000000" font-size="13" lengthAdjust="spacingAndGlyphs" textLength="93" x="1019.5" y="463.7266">JDBCStatement</text>
        <rect fill="#FFFFFF" filter="url(#f1)" height="170.2422" style="stroke: #000000; stroke-width: 2.0;" width="432.5" x="701" y="717.2109"/>
        <rect fill="#FEFECE" filter="url(#f1)" height="29.3105" style="stroke: #A80036; stroke-width: 1.5;" width="116" x="882.5" y="759.5215"/>
        <text fill="#000000" font-size="13" lengthAdjust="spacingAndGlyphs" textLength="102" x="889.5" y="779.5215">JDBCConnection</text>
        <rect fill="#FEFECE" filter="url(#f1)" height="29.3105" style="stroke: #A80036; stroke-width: 1.5;" width="107" x="1012.5" y="803.832"/>
        <text fill="#000000" font-size="13" lengthAdjust="spacingAndGlyphs" textLength="93" x="1019.5" y="823.832">JDBCStatement</text>
        <line style="stroke: #A80036; stroke-width: 1.0; stroke-dasharray: 5.0,5.0;" x1="38" x2="38" y1="34.3105" y2="1021.6953"/>
        <line style="stroke: #A80036; stroke-width: 1.0; stroke-dasharray: 5.0,5.0;" x1="165" x2="165" y1="34.3105" y2="1021.6953"/>
        <line style="stroke: #A80036; stroke-width: 1.0; stroke-dasharray: 5.0,5.0;" x1="311.5" x2="311.5" y1="105.7764" y2="1021.6953"/>
        <line style="stroke: #A80036; stroke-width: 1.0; stroke-dasharray: 5.0,5.0;" x1="474" x2="474" y1="150.0869" y2="1021.6953"/>
        <line style="stroke: #A80036; stroke-width: 1.0; stroke-dasharray: 5.0,5.0;" x1="616.5" x2="616.5" y1="34.3105" y2="1021.6953"/>
        <line style="stroke: #A80036; stroke-width: 1.0; stroke-dasharray: 5.0,5.0;" x1="758.5" x2="758.5" y1="34.3105" y2="1021.6953"/>
        <line style="stroke: #A80036; stroke-width: 1.0; stroke-dasharray: 5.0,5.0;" x1="942.5" x2="942.5" y1="791.6768" y2="1021.6953"/>
        <line style="stroke: #A80036; stroke-width: 1.0; stroke-dasharray: 5.0,5.0;" x1="1067.5" x2="1067.5" y1="835.9873" y2="1021.6953"/>
        <line style="stroke: #A80036; stroke-width: 1.0; stroke-dasharray: 5.0,5.0;" x1="1183.5" x2="1183.5" y1="34.3105" y2="1021.6953"/>
        <rect fill="#FEFECE" filter="url(#f1)" height="29.3105" style="stroke: #A80036; stroke-width: 1.5;" width="63" x="5" y="0"/>
        <text fill="#000000" font-size="13" lengthAdjust="spacingAndGlyphs" textLength="49" x="12" y="20">Browser</text>
        <rect fill="#FEFECE" filter="url(#f1)" height="29.3105" style="stroke: #A80036; stroke-width: 1.5;" width="63" x="5" y="1020.6895"/>
        <text fill="#000000" font-size="13" lengthAdjust="spacingAndGlyphs" textLength="49" x="12" y="1040.6895">Browser</text>
        <rect fill="#FEFECE" filter="url(#f1)" height="29.3105" style="stroke: #A80036; stroke-width: 1.5;" width="61" x="133" y="0"/>
        <text fill="#000000" font-size="13" lengthAdjust="spacingAndGlyphs" textLength="47" x="140" y="20">Tomcat</text>
        <rect fill="#FEFECE" filter="url(#f1)" height="29.3105" style="stroke: #A80036; stroke-width: 1.5;" width="61" x="133" y="1020.6895"/>
        <text fill="#000000" font-size="13" lengthAdjust="spacingAndGlyphs" textLength="47" x="140" y="1040.6895">Tomcat</text>
        <rect fill="#FEFECE" filter="url(#f1)" height="29.3105" style="stroke: #A80036; stroke-width: 1.5;" width="64" x="277.5" y="1020.6895"/>
        <text fill="#000000" font-size="13" lengthAdjust="spacingAndGlyphs" textLength="50" x="284.5" y="1040.6895">Request</text>
        <rect fill="#FEFECE" filter="url(#f1)" height="29.3105" style="stroke: #A80036; stroke-width: 1.5;" width="109" x="418" y="1020.6895"/>
        <text fill="#000000" font-size="13" lengthAdjust="spacingAndGlyphs" textLength="95" x="425" y="1040.6895">UpdateBuilding</text>
        <rect fill="#FEFECE" filter="url(#f1)" height="29.3105" style="stroke: #A80036; stroke-width: 1.5;" width="106" x="561.5" y="0"/>
        <text fill="#000000" font-size="13" lengthAdjust="spacingAndGlyphs" textLength="92" x="568.5" y="20">DomainFacade</text>
        <rect fill="#FEFECE" filter="url(#f1)" height="29.3105" style="stroke: #A80036; stroke-width: 1.5;" width="106" x="561.5" y="1020.6895"/>
        <text fill="#000000" font-size="13" lengthAdjust="spacingAndGlyphs" textLength="92" x="568.5" y="1040.6895">DomainFacade</text>
        <rect fill="#FEFECE" filter="url(#f1)" height="29.3105" style="stroke: #A80036; stroke-width: 1.5;" width="74" x="719.5" y="0"/>
        <text fill="#000000" font-size="13" lengthAdjust="spacingAndGlyphs" textLength="60" x="726.5" y="20">DBFacade</text>
        <rect fill="#FEFECE" filter="url(#f1)" height="29.3105" style="stroke: #A80036; stroke-width: 1.5;" width="74" x="719.5" y="1020.6895"/>
        <text fill="#000000" font-size="13" lengthAdjust="spacingAndGlyphs" textLength="60" x="726.5" y="1040.6895">DBFacade</text>
        <rect fill="#FEFECE" filter="url(#f1)" height="29.3105" style="stroke: #A80036; stroke-width: 1.5;" width="116" x="882.5" y="1020.6895"/>
        <text fill="#000000" font-size="13" lengthAdjust="spacingAndGlyphs" textLength="102" x="889.5" y="1040.6895">JDBCConnection</text>
        <rect fill="#FEFECE" filter="url(#f1)" height="29.3105" style="stroke: #A80036; stroke-width: 1.5;" width="107" x="1012.5" y="1020.6895"/>
        <text fill="#000000" font-size="13" lengthAdjust="spacingAndGlyphs" textLength="93" x="1019.5" y="1040.6895">JDBCStatement</text>
        <rect fill="#FEFECE" filter="url(#f1)" height="29.3105" style="stroke: #A80036; stroke-width: 1.5;" width="96" x="1133.5" y="0"/>
        <text fill="#000000" font-size="13" lengthAdjust="spacingAndGlyphs" textLength="82" x="1140.5" y="20">buildings.jsp</text>
        <rect fill="#FEFECE" filter="url(#f1)" height="29.3105" style="stroke: #A80036; stroke-width: 1.5;" width="96" x="1133.5" y="1020.6895"/>
        <text fill="#000000" font-size="13" lengthAdjust="spacingAndGlyphs" textLength="82" x="1140.5" y="1040.6895">buildings.jsp</text>
        <polygon fill="#A80036" points="153.5,61.3105,163.5,65.3105,153.5,69.3105,157.5,65.3105" style="stroke: #A80036; stroke-width: 1.0;"/>
        <line style="stroke: #A80036; stroke-width: 1.0;" x1="38.5" x2="159.5" y1="65.3105" y2="65.3105"/>
        <text fill="#000000" font-size="13" lengthAdjust="spacingAndGlyphs" textLength="90" x="45.5" y="61.3105">req: post form</text>
        <polygon fill="#A80036" points="265.5,90.6211,275.5,94.6211,265.5,98.6211,269.5,94.6211" style="stroke: #A80036; stroke-width: 1.0;"/>
        <line style="stroke: #A80036; stroke-width: 1.0;" x1="165.5" x2="271.5" y1="94.6211" y2="94.6211"/>
        <text fill="#000000" font-size="13" lengthAdjust="spacingAndGlyphs" textLength="88" x="172.5" y="90.6211">setParameters</text>
        <rect fill="#FEFECE" filter="url(#f1)" height="29.3105" style="stroke: #A80036; stroke-width: 1.5;" width="64" x="277.5" y="73.6211"/>
        <text fill="#000000" font-size="13" lengthAdjust="spacingAndGlyphs" textLength="50" x="284.5" y="93.6211">Request</text>
        <polygon fill="#A80036" points="406,134.9316,416,138.9316,406,142.9316,410,138.9316" style="stroke: #A80036; stroke-width: 1.0;"/>
        <line style="stroke: #A80036; stroke-width: 1.0;" x1="165.5" x2="412" y1="138.9316" y2="138.9316"/>
        <text fill="#000000" font-size="13" lengthAdjust="spacingAndGlyphs" textLength="166" x="172.5" y="134.9316">processRequest( req, resp)</text>
        <rect fill="#FEFECE" filter="url(#f1)" height="29.3105" style="stroke: #A80036; stroke-width: 1.5;" width="109" x="418" y="117.9316"/>
        <text fill="#000000" font-size="13" lengthAdjust="spacingAndGlyphs" textLength="95" x="425" y="137.9316">UpdateBuilding</text>
        <polygon fill="#A80036" points="322.5,179.2422,312.5,183.2422,322.5,187.2422,318.5,183.2422" style="stroke: #A80036; stroke-width: 1.0;"/>
        <line style="stroke: #A80036; stroke-width: 1.0;" x1="316.5" x2="473.5" y1="183.2422" y2="183.2422"/>
        <text fill="#000000" font-size="13" lengthAdjust="spacingAndGlyphs" textLength="139" x="328.5" y="179.2422">getParameter("action")</text>
        <rect fill="none" height="85.9316" style="stroke: #000000; stroke-width: 2.0;" width="365" x="210" y="198.5527"/>
        <polygon fill="#EEEEEE" points="210,198.5527,536,198.5527,536,205.5527,526,215.5527,210,215.5527,210,198.5527" style="stroke: #000000; stroke-width: 2.0;"/>
        <text fill="#000000" font-size="13" font-weight="bold" lengthAdjust="spacingAndGlyphs" textLength="281" x="225" y="212.5527">get parameters and make building object</text>
        <polygon fill="#A80036" points="322.5,232.8633,312.5,236.8633,322.5,240.8633,318.5,236.8633" style="stroke: #A80036; stroke-width: 1.0;"/>
        <line style="stroke: #A80036; stroke-width: 1.0;" x1="316.5" x2="473.5" y1="236.8633" y2="236.8633"/>
        <text fill="#000000" font-size="13" lengthAdjust="spacingAndGlyphs" textLength="112" x="328.5" y="232.8633">getParameter("id")</text>
        <polygon fill="#FBFB77" filter="url(#f1)" points="220,250.1738,220,275.1738,561,275.1738,561,260.1738,551,250.1738,220,250.1738" style="stroke: #A80036; stroke-width: 1.0;"/>
        <line style="stroke: #A80036; stroke-width: 1.0;" x1="551" x2="551" y1="250.1738" y2="260.1738"/>
        <line style="stroke: #A80036; stroke-width: 1.0;" x1="561" x2="551" y1="260.1738" y2="260.1738"/>
        <text fill="#000000" font-size="13" lengthAdjust="spacingAndGlyphs" textLength="320" x="226" y="268.1738">pick out other paramters and make building object</text>
        <polygon fill="#A80036" points="604.5,308.4844,614.5,312.4844,604.5,316.4844,608.5,312.4844" style="stroke: #A80036; stroke-width: 1.0;"/>
        <line style="stroke: #A80036; stroke-width: 1.0;" x1="474.5" x2="610.5" y1="312.4844" y2="312.4844"/>
        <text fill="#000000" font-size="13" lengthAdjust="spacingAndGlyphs" textLength="118" x="481.5" y="308.4844">updateBuilding( b )</text>
        <polygon fill="#A80036" points="746.5,337.7949,756.5,341.7949,746.5,345.7949,750.5,341.7949" style="stroke: #A80036; stroke-width: 1.0;"/>
        <line style="stroke: #A80036; stroke-width: 1.0;" x1="616.5" x2="752.5" y1="341.7949" y2="341.7949"/>
        <text fill="#000000" font-size="13" lengthAdjust="spacingAndGlyphs" textLength="118" x="623.5" y="337.7949">updateBuilding( b )</text>
        <rect fill="none" height="170.2422" style="stroke: #000000; stroke-width: 2.0;" width="432.5" x="701" y="357.1055"/>
        <polygon fill="#EEEEEE" points="701,357.1055,969,357.1055,969,364.1055,959,374.1055,701,374.1055,701,357.1055" style="stroke: #000000; stroke-width: 2.0;"/>
        <text fill="#000000" font-size="13" font-weight="bold" lengthAdjust="spacingAndGlyphs" textLength="223" x="716" y="371.1055">implementation of getBuildings()</text>
        <polygon fill="#A80036" points="870.5,416.416,880.5,420.416,870.5,424.416,874.5,420.416" style="stroke: #A80036; stroke-width: 1.0;"/>
        <line style="stroke: #A80036; stroke-width: 1.0;" x1="758.5" x2="876.5" y1="420.416" y2="420.416"/>
        <text fill="#000000" font-size="13" lengthAdjust="spacingAndGlyphs" textLength="100" x="765.5" y="416.416">getConnection()</text>
        <rect fill="#FEFECE" filter="url(#f1)" height="29.3105" style="stroke: #A80036; stroke-width: 1.5;" width="116" x="882.5" y="399.416"/>
        <text fill="#000000" font-size="13" lengthAdjust="spacingAndGlyphs" textLength="102" x="889.5" y="419.416">JDBCConnection</text>
        <polygon fill="#A80036" points="1000.5,445.7266,1010.5,449.7266,1000.5,453.7266,1004.5,449.7266" style="stroke: #A80036; stroke-width: 1.0;"/>
        <line style="stroke: #A80036; stroke-width: 1.0;" x1="758.5" x2="1006.5" y1="449.7266" y2="449.7266"/>
        <rect fill="#FEFECE" filter="url(#f1)" height="29.3105" style="stroke: #A80036; stroke-width: 1.5;" width="107" x="1012.5" y="443.7266"/>
        <text fill="#000000" font-size="13" lengthAdjust="spacingAndGlyphs" textLength="93" x="1019.5" y="463.7266">JDBCStatement</text>
        <polygon fill="#FBFB77" filter="url(#f1)" points="711,493.0371,711,518.0371,989,518.0371,989,503.0371,979,493.0371,711,493.0371" style="stroke: #A80036; stroke-width: 1.0;"/>
        <line style="stroke: #A80036; stroke-width: 1.0;" x1="979" x2="979" y1="493.0371" y2="503.0371"/>
        <line style="stroke: #A80036; stroke-width: 1.0;" x1="989" x2="979" y1="503.0371" y2="503.0371"/>
        <text fill="#000000" font-size="13" lengthAdjust="spacingAndGlyphs" textLength="203" x="742" y="511.0371">using connection and statement</text>
        <polygon fill="#A80036" points="627.5,551.3477,617.5,555.3477,627.5,559.3477,623.5,555.3477" style="stroke: #A80036; stroke-width: 1.0;"/>
        <line style="stroke: #A80036; stroke-width: 1.0;" x1="621.5" x2="757.5" y1="555.3477" y2="555.3477"/>
        <text fill="#000000" font-size="13" lengthAdjust="spacingAndGlyphs" textLength="65" x="633.5" y="551.3477">return List</text>
        <polygon fill="#A80036" points="485.5,580.6582,475.5,584.6582,485.5,588.6582,481.5,584.6582" style="stroke: #A80036; stroke-width: 1.0;"/>
        <line style="stroke: #A80036; stroke-width: 1.0;" x1="479.5" x2="615.5" y1="584.6582" y2="584.6582"/>
        <text fill="#000000" font-size="13" lengthAdjust="spacingAndGlyphs" textLength="65" x="491.5" y="580.6582">return List</text>
        <polygon fill="#A80036" points="176.5,609.9688,166.5,613.9688,176.5,617.9688,172.5,613.9688" style="stroke: #A80036; stroke-width: 1.0;"/>
        <line style="stroke: #A80036; stroke-width: 1.0;" x1="170.5" x2="473.5" y1="613.9688" y2="613.9688"/>
        <text fill="#000000" font-size="13" lengthAdjust="spacingAndGlyphs" textLength="151" x="182.5" y="609.9688">redirect to buildings.jsp</text>
        <polygon fill="#A80036" points="1171.5,639.2793,1181.5,643.2793,1171.5,647.2793,1175.5,643.2793" style="stroke: #A80036; stroke-width: 1.0;"/>
        <line style="stroke: #A80036; stroke-width: 1.0;" x1="165.5" x2="1177.5" y1="643.2793" y2="643.2793"/>
        <text fill="#000000" font-size="13" lengthAdjust="spacingAndGlyphs" textLength="76" x="172.5" y="639.2793">"build page"</text>
        <polygon fill="#A80036" points="627.5,668.5898,617.5,672.5898,627.5,676.5898,623.5,672.5898" style="stroke: #A80036; stroke-width: 1.0;"/>
        <line style="stroke: #A80036; stroke-width: 1.0;" x1="621.5" x2="1182.5" y1="672.5898" y2="672.5898"/>
        <text fill="#000000" font-size="13" lengthAdjust="spacingAndGlyphs" textLength="86" x="633.5" y="668.5898">getBuildings()</text>
        <polygon fill="#A80036" points="746.5,697.9004,756.5,701.9004,746.5,705.9004,750.5,701.9004" style="stroke: #A80036; stroke-width: 1.0;"/>
        <line style="stroke: #A80036; stroke-width: 1.0;" x1="616.5" x2="752.5" y1="701.9004" y2="701.9004"/>
        <text fill="#000000" font-size="13" lengthAdjust="spacingAndGlyphs" textLength="86" x="623.5" y="697.9004">getBuildings()</text>
        <rect fill="none" height="170.2422" style="stroke: #000000; stroke-width: 2.0;" width="432.5" x="701" y="717.2109"/>
        <polygon fill="#EEEEEE" points="701,717.2109,969,717.2109,969,724.2109,959,734.2109,701,734.2109,701,717.2109" style="stroke: #000000; stroke-width: 2.0;"/>
        <text fill="#000000" font-size="13" font-weight="bold" lengthAdjust="spacingAndGlyphs" textLength="223" x="716" y="731.2109">implementation of getBuildings()</text>
        <polygon fill="#A80036" points="870.5,776.5215,880.5,780.5215,870.5,784.5215,874.5,780.5215" style="stroke: #A80036; stroke-width: 1.0;"/>
        <line style="stroke: #A80036; stroke-width: 1.0;" x1="758.5" x2="876.5" y1="780.5215" y2="780.5215"/>
        <text fill="#000000" font-size="13" lengthAdjust="spacingAndGlyphs" textLength="100" x="765.5" y="776.5215">getConnection()</text>
        <rect fill="#FEFECE" filter="url(#f1)" height="29.3105" style="stroke: #A80036; stroke-width: 1.5;" width="116" x="882.5" y="759.5215"/>
        <text fill="#000000" font-size="13" lengthAdjust="spacingAndGlyphs" textLength="102" x="889.5" y="779.5215">JDBCConnection</text>
        <polygon fill="#A80036" points="1000.5,805.832,1010.5,809.832,1000.5,813.832,1004.5,809.832" style="stroke: #A80036; stroke-width: 1.0;"/>
        <line style="stroke: #A80036; stroke-width: 1.0;" x1="758.5" x2="1006.5" y1="809.832" y2="809.832"/>
        <rect fill="#FEFECE" filter="url(#f1)" height="29.3105" style="stroke: #A80036; stroke-width: 1.5;" width="107" x="1012.5" y="803.832"/>
        <text fill="#000000" font-size="13" lengthAdjust="spacingAndGlyphs" textLength="93" x="1019.5" y="823.832">JDBCStatement</text>
        <polygon fill="#FBFB77" filter="url(#f1)" points="711,853.1426,711,878.1426,989,878.1426,989,863.1426,979,853.1426,711,853.1426" style="stroke: #A80036; stroke-width: 1.0;"/>
        <line style="stroke: #A80036; stroke-width: 1.0;" x1="979" x2="979" y1="853.1426" y2="863.1426"/>
        <line style="stroke: #A80036; stroke-width: 1.0;" x1="989" x2="979" y1="863.1426" y2="863.1426"/>
        <text fill="#000000" font-size="13" lengthAdjust="spacingAndGlyphs" textLength="203" x="742" y="871.1426">using connection and statement</text>
        <polygon fill="#A80036" points="627.5,911.4531,617.5,915.4531,627.5,919.4531,623.5,915.4531" style="stroke: #A80036; stroke-width: 1.0;"/>
        <line style="stroke: #A80036; stroke-width: 1.0;" x1="621.5" x2="757.5" y1="915.4531" y2="915.4531"/>
        <text fill="#000000" font-size="13" lengthAdjust="spacingAndGlyphs" textLength="65" x="633.5" y="911.4531">return List</text>
        <polygon fill="#A80036" points="1171.5,940.7637,1181.5,944.7637,1171.5,948.7637,1175.5,944.7637" style="stroke: #A80036; stroke-width: 1.0;"/>
        <line style="stroke: #A80036; stroke-width: 1.0;" x1="616.5" x2="1177.5" y1="944.7637" y2="944.7637"/>
        <text fill="#000000" font-size="13" lengthAdjust="spacingAndGlyphs" textLength="65" x="623.5" y="940.7637">return List</text>
        <polygon fill="#A80036" points="176.5,970.0742,166.5,974.0742,176.5,978.0742,172.5,974.0742" style="stroke: #A80036; stroke-width: 1.0;"/>
        <line style="stroke: #A80036; stroke-width: 1.0;" x1="170.5" x2="1182.5" y1="974.0742" y2="974.0742"/>
        <text fill="#000000" font-size="13" lengthAdjust="spacingAndGlyphs" textLength="103" x="182.5" y="970.0742">HTML document</text>
        <polygon fill="#A80036" points="49.5,999.3848,39.5,1003.3848,49.5,1007.3848,45.5,1003.3848" style="stroke: #A80036; stroke-width: 1.0;"/>
        <line style="stroke: #A80036; stroke-width: 1.0;" x1="43.5" x2="164.5" y1="1003.3848" y2="1003.3848"/>
        <text fill="#000000" font-size="13" lengthAdjust="spacingAndGlyphs" textLength="103" x="55.5" y="999.3848">HTML document</text>
    </g>
</svg>
