<?xml version="1.0" encoding="UTF-8"?><svg xmlns="http://www.w3.org/2000/svg" xmlns:xlink="http://www.w3.org/1999/xlink" height="510pt" style="width:908px;height:510px;" version="1.1" viewBox="0 0 908 510" width="908pt">
    <defs>
        <filter height="300%" id="f1" width="300%" x="-1" y="-1">
            <feGaussianBlur result="blurOut" stdDeviation="2.0"/>
            <feColorMatrix in="blurOut" result="blurOut2" type="matrix" values="0 0 0 0 0 0 0 0 0 0 0 0 0 0 0 0 0 0 .4 0"/>
            <feOffset dx="4.0" dy="4.0" in="blurOut2" result="blurOut3"/>
            <feBlend in="SourceGraphic" in2="blurOut3" mode="normal"/>
        </filter>
    </defs>
    <g>
        <rect fill="#FFFFFF" filter="url(#f1)" height="170.2422" style="stroke: #000000; stroke-width: 2.0;" width="432.5" x="467" y="168.5527"/>
        <rect fill="#FEFECE" filter="url(#f1)" height="29.3105" style="stroke: #A80036; stroke-width: 1.5;" width="116" x="648.5" y="210.8633"/>
        <text fill="#000000" font-size="13" lengthAdjust="spacingAndGlyphs" textLength="102" x="655.5" y="230.8633">JDBCConnection</text>
        <rect fill="#FEFECE" filter="url(#f1)" height="29.3105" style="stroke: #A80036; stroke-width: 1.5;" width="107" x="778.5" y="255.1738"/>
        <text fill="#000000" font-size="13" lengthAdjust="spacingAndGlyphs" textLength="93" x="785.5" y="275.1738">JDBCStatement</text>
        <line style="stroke: #A80036; stroke-width: 1.0; stroke-dasharray: 5.0,5.0;" x1="38" x2="38" y1="34.3105" y2="473.0371"/>
        <line style="stroke: #A80036; stroke-width: 1.0; stroke-dasharray: 5.0,5.0;" x1="172" x2="172" y1="34.3105" y2="473.0371"/>
        <line style="stroke: #A80036; stroke-width: 1.0; stroke-dasharray: 5.0,5.0;" x1="299.5" x2="299.5" y1="34.3105" y2="473.0371"/>
        <line style="stroke: #A80036; stroke-width: 1.0; stroke-dasharray: 5.0,5.0;" x1="414.5" x2="414.5" y1="34.3105" y2="473.0371"/>
        <line style="stroke: #A80036; stroke-width: 1.0; stroke-dasharray: 5.0,5.0;" x1="524.5" x2="524.5" y1="34.3105" y2="473.0371"/>
        <line style="stroke: #A80036; stroke-width: 1.0; stroke-dasharray: 5.0,5.0;" x1="708.5" x2="708.5" y1="243.0186" y2="473.0371"/>
        <line style="stroke: #A80036; stroke-width: 1.0; stroke-dasharray: 5.0,5.0;" x1="833.5" x2="833.5" y1="287.3291" y2="473.0371"/>
        <rect fill="#FEFECE" filter="url(#f1)" height="29.3105" style="stroke: #A80036; stroke-width: 1.5;" width="63" x="5" y="0"/>
        <text fill="#000000" font-size="13" lengthAdjust="spacingAndGlyphs" textLength="49" x="12" y="20">Browser</text>
        <rect fill="#FEFECE" filter="url(#f1)" height="29.3105" style="stroke: #A80036; stroke-width: 1.5;" width="63" x="5" y="471.6895"/>
        <text fill="#000000" font-size="13" lengthAdjust="spacingAndGlyphs" textLength="49" x="12" y="491.6895">Browser</text>
        <rect fill="#FEFECE" filter="url(#f1)" height="29.3105" style="stroke: #A80036; stroke-width: 1.5;" width="61" x="140" y="0"/>
        <text fill="#000000" font-size="13" lengthAdjust="spacingAndGlyphs" textLength="47" x="147" y="20">Tomcat</text>
        <rect fill="#FEFECE" filter="url(#f1)" height="29.3105" style="stroke: #A80036; stroke-width: 1.5;" width="61" x="140" y="471.6895"/>
        <text fill="#000000" font-size="13" lengthAdjust="spacingAndGlyphs" textLength="47" x="147" y="491.6895">Tomcat</text>
        <rect fill="#FEFECE" filter="url(#f1)" height="29.3105" style="stroke: #A80036; stroke-width: 1.5;" width="96" x="249.5" y="0"/>
        <text fill="#000000" font-size="13" lengthAdjust="spacingAndGlyphs" textLength="82" x="256.5" y="20">buildings.jsp</text>
        <rect fill="#FEFECE" filter="url(#f1)" height="29.3105" style="stroke: #A80036; stroke-width: 1.5;" width="96" x="249.5" y="471.6895"/>
        <text fill="#000000" font-size="13" lengthAdjust="spacingAndGlyphs" textLength="82" x="256.5" y="491.6895">buildings.jsp</text>
        <rect fill="#FEFECE" filter="url(#f1)" height="29.3105" style="stroke: #A80036; stroke-width: 1.5;" width="106" x="359.5" y="0"/>
        <text fill="#000000" font-size="13" lengthAdjust="spacingAndGlyphs" textLength="92" x="366.5" y="20">DomainFacade</text>
        <rect fill="#FEFECE" filter="url(#f1)" height="29.3105" style="stroke: #A80036; stroke-width: 1.5;" width="106" x="359.5" y="471.6895"/>
        <text fill="#000000" font-size="13" lengthAdjust="spacingAndGlyphs" textLength="92" x="366.5" y="491.6895">DomainFacade</text>
        <rect fill="#FEFECE" filter="url(#f1)" height="29.3105" style="stroke: #A80036; stroke-width: 1.5;" width="74" x="485.5" y="0"/>
        <text fill="#000000" font-size="13" lengthAdjust="spacingAndGlyphs" textLength="60" x="492.5" y="20">DBFacade</text>
        <rect fill="#FEFECE" filter="url(#f1)" height="29.3105" style="stroke: #A80036; stroke-width: 1.5;" width="74" x="485.5" y="471.6895"/>
        <text fill="#000000" font-size="13" lengthAdjust="spacingAndGlyphs" textLength="60" x="492.5" y="491.6895">DBFacade</text>
        <rect fill="#FEFECE" filter="url(#f1)" height="29.3105" style="stroke: #A80036; stroke-width: 1.5;" width="116" x="648.5" y="471.6895"/>
        <text fill="#000000" font-size="13" lengthAdjust="spacingAndGlyphs" textLength="102" x="655.5" y="491.6895">JDBCConnection</text>
        <rect fill="#FEFECE" filter="url(#f1)" height="29.3105" style="stroke: #A80036; stroke-width: 1.5;" width="107" x="778.5" y="471.6895"/>
        <text fill="#000000" font-size="13" lengthAdjust="spacingAndGlyphs" textLength="93" x="785.5" y="491.6895">JDBCStatement</text>
        <polygon fill="#A80036" points="160.5,61.3105,170.5,65.3105,160.5,69.3105,164.5,65.3105" style="stroke: #A80036; stroke-width: 1.0;"/>
        <line style="stroke: #A80036; stroke-width: 1.0;" x1="38.5" x2="166.5" y1="65.3105" y2="65.3105"/>
        <text fill="#000000" font-size="13" lengthAdjust="spacingAndGlyphs" textLength="110" x="45.5" y="61.3105">req: buildings.jsp</text>
        <polygon fill="#A80036" points="287.5,90.6211,297.5,94.6211,287.5,98.6211,291.5,94.6211" style="stroke: #A80036; stroke-width: 1.0;"/>
        <line style="stroke: #A80036; stroke-width: 1.0;" x1="172.5" x2="293.5" y1="94.6211" y2="94.6211"/>
        <text fill="#000000" font-size="13" lengthAdjust="spacingAndGlyphs" textLength="76" x="179.5" y="90.6211">"build page"</text>
        <polygon fill="#A80036" points="402.5,119.9316,412.5,123.9316,402.5,127.9316,406.5,123.9316" style="stroke: #A80036; stroke-width: 1.0;"/>
        <line style="stroke: #A80036; stroke-width: 1.0;" x1="299.5" x2="408.5" y1="123.9316" y2="123.9316"/>
        <text fill="#000000" font-size="13" lengthAdjust="spacingAndGlyphs" textLength="86" x="306.5" y="119.9316">getBuildings()</text>
        <polygon fill="#A80036" points="512.5,149.2422,522.5,153.2422,512.5,157.2422,516.5,153.2422" style="stroke: #A80036; stroke-width: 1.0;"/>
        <line style="stroke: #A80036; stroke-width: 1.0;" x1="414.5" x2="518.5" y1="153.2422" y2="153.2422"/>
        <text fill="#000000" font-size="13" lengthAdjust="spacingAndGlyphs" textLength="86" x="421.5" y="149.2422">getBuildings()</text>
        <rect fill="none" height="170.2422" style="stroke: #000000; stroke-width: 2.0;" width="432.5" x="467" y="168.5527"/>
        <polygon fill="#EEEEEE" points="467,168.5527,735,168.5527,735,175.5527,725,185.5527,467,185.5527,467,168.5527" style="stroke: #000000; stroke-width: 2.0;"/>
        <text fill="#000000" font-size="13" font-weight="bold" lengthAdjust="spacingAndGlyphs" textLength="223" x="482" y="182.5527">implementation of getBuildings()</text>
        <polygon fill="#A80036" points="636.5,227.8633,646.5,231.8633,636.5,235.8633,640.5,231.8633" style="stroke: #A80036; stroke-width: 1.0;"/>
        <line style="stroke: #A80036; stroke-width: 1.0;" x1="524.5" x2="642.5" y1="231.8633" y2="231.8633"/>
        <text fill="#000000" font-size="13" lengthAdjust="spacingAndGlyphs" textLength="100" x="531.5" y="227.8633">getConnection()</text>
        <rect fill="#FEFECE" filter="url(#f1)" height="29.3105" style="stroke: #A80036; stroke-width: 1.5;" width="116" x="648.5" y="210.8633"/>
        <text fill="#000000" font-size="13" lengthAdjust="spacingAndGlyphs" textLength="102" x="655.5" y="230.8633">JDBCConnection</text>
        <polygon fill="#A80036" points="766.5,257.1738,776.5,261.1738,766.5,265.1738,770.5,261.1738" style="stroke: #A80036; stroke-width: 1.0;"/>
        <line style="stroke: #A80036; stroke-width: 1.0;" x1="524.5" x2="772.5" y1="261.1738" y2="261.1738"/>
        <rect fill="#FEFECE" filter="url(#f1)" height="29.3105" style="stroke: #A80036; stroke-width: 1.5;" width="107" x="778.5" y="255.1738"/>
        <text fill="#000000" font-size="13" lengthAdjust="spacingAndGlyphs" textLength="93" x="785.5" y="275.1738">JDBCStatement</text>
        <polygon fill="#FBFB77" filter="url(#f1)" points="477,304.4844,477,329.4844,755,329.4844,755,314.4844,745,304.4844,477,304.4844" style="stroke: #A80036; stroke-width: 1.0;"/>
        <line style="stroke: #A80036; stroke-width: 1.0;" x1="745" x2="745" y1="304.4844" y2="314.4844"/>
        <line style="stroke: #A80036; stroke-width: 1.0;" x1="755" x2="745" y1="314.4844" y2="314.4844"/>
        <text fill="#000000" font-size="13" lengthAdjust="spacingAndGlyphs" textLength="203" x="508" y="322.4844">using connection and statement</text>
        <polygon fill="#A80036" points="425.5,362.7949,415.5,366.7949,425.5,370.7949,421.5,366.7949" style="stroke: #A80036; stroke-width: 1.0;"/>
        <line style="stroke: #A80036; stroke-width: 1.0;" x1="419.5" x2="523.5" y1="366.7949" y2="366.7949"/>
        <text fill="#000000" font-size="13" lengthAdjust="spacingAndGlyphs" textLength="65" x="431.5" y="362.7949">return List</text>
        <polygon fill="#A80036" points="310.5,392.1055,300.5,396.1055,310.5,400.1055,306.5,396.1055" style="stroke: #A80036; stroke-width: 1.0;"/>
        <line style="stroke: #A80036; stroke-width: 1.0;" x1="304.5" x2="413.5" y1="396.1055" y2="396.1055"/>
        <text fill="#000000" font-size="13" lengthAdjust="spacingAndGlyphs" textLength="65" x="316.5" y="392.1055">return List</text>
        <polygon fill="#A80036" points="183.5,421.416,173.5,425.416,183.5,429.416,179.5,425.416" style="stroke: #A80036; stroke-width: 1.0;"/>
        <line style="stroke: #A80036; stroke-width: 1.0;" x1="177.5" x2="298.5" y1="425.416" y2="425.416"/>
        <text fill="#000000" font-size="13" lengthAdjust="spacingAndGlyphs" textLength="103" x="189.5" y="421.416">HTML document</text>
        <polygon fill="#A80036" points="49.5,450.7266,39.5,454.7266,49.5,458.7266,45.5,454.7266" style="stroke: #A80036; stroke-width: 1.0;"/>
        <line style="stroke: #A80036; stroke-width: 1.0;" x1="43.5" x2="171.5" y1="454.7266" y2="454.7266"/>
        <text fill="#000000" font-size="13" lengthAdjust="spacingAndGlyphs" textLength="103" x="55.5" y="450.7266">HTML document</text>
    </g>
</svg>
