<?xml version="1.0" encoding="UTF-8"?><svg xmlns="http://www.w3.org/2000/svg" xmlns:xlink="http://www.w3.org/1999/xlink" height="445pt" style="width:664px;height:445px;" version="1.1" viewBox="0 0 664 445" width="664pt">
    <defs>
        <filter height="300%" id="f1" width="300%" x="-1" y="-1">
            <feGaussianBlur result="blurOut" stdDeviation="2.0"/>
            <feColorMatrix in="blurOut" result="blurOut2" type="matrix" values="0 0 0 0 0 0 0 0 0 0 0 0 0 0 0 0 0 0 .4 0"/>
            <feOffset dx="4.0" dy="4.0" in="blurOut2" result="blurOut3"/>
            <feBlend in="SourceGraphic" in2="blurOut3" mode="normal"/>
        </filter>
    </defs>
    <g>
        <rect fill="#FEFECE" filter="url(#f1)" height="36" style="stroke: #A80036; stroke-width: 1.5;" width="144" x="376.5" y="51"/>
        <ellipse cx="394.5" cy="69" fill="#ADD1B2" rx="11" ry="11" style="stroke: #A80036; stroke-width: 1.0;"/>
        <path d="M395.3418,75.75 L392.8931,75.75 L392.8931,65.4985 L389.7471,65.4985 L389.7471,63.3569 L398.4878,63.3569 L398.4878,65.4985 L395.3418,65.4985 Z "/>
        <text fill="#000000" font-size="13" lengthAdjust="spacingAndGlyphs" textLength="102" x="411.5" y="71">JDBCConnection</text>
        <rect fill="#FEFECE" filter="url(#f1)" height="29.3105" style="stroke: #A80036; stroke-width: 1.5;" width="74" x="288.5" y="131.3105"/>
        <text fill="#000000" font-size="13" lengthAdjust="spacingAndGlyphs" textLength="60" x="295.5" y="151.3105">DBFacade</text>
        <rect fill="#FFFFFF" filter="url(#f1)" height="100.6211" style="stroke: #000000; stroke-width: 2.0;" width="377" x="278.5" y="211.9316"/>
        <rect fill="#FEFECE" filter="url(#f1)" height="29.3105" style="stroke: #A80036; stroke-width: 1.5;" width="107" x="534.5" y="268.2422"/>
        <text fill="#000000" font-size="13" lengthAdjust="spacingAndGlyphs" textLength="93" x="541.5" y="288.2422">JDBCStatement</text>
        <line style="stroke: #A80036; stroke-width: 1.0; stroke-dasharray: 5.0,5.0;" x1="54" x2="54" y1="41" y2="401.1738"/>
        <line style="stroke: #A80036; stroke-width: 1.0; stroke-dasharray: 5.0,5.0;" x1="327.5" x2="327.5" y1="163.4658" y2="401.1738"/>
        <line style="stroke: #A80036; stroke-width: 1.0; stroke-dasharray: 5.0,5.0;" x1="450.5" x2="450.5" y1="86.5" y2="401.1738"/>
        <line style="stroke: #A80036; stroke-width: 1.0; stroke-dasharray: 5.0,5.0;" x1="589.5" x2="589.5" y1="300.3975" y2="401.1738"/>
        <rect fill="#FEFECE" filter="url(#f1)" height="36" style="stroke: #A80036; stroke-width: 1.5;" width="95" x="5" y="0"/>
        <ellipse cx="23" cy="18" fill="#ADD1B2" rx="11" ry="11" style="stroke: #A80036; stroke-width: 1.0;"/>
        <path d="M23.8418,24.75 L21.3931,24.75 L21.3931,14.4985 L18.2471,14.4985 L18.2471,12.3569 L26.9878,12.3569 L26.9878,14.4985 L23.8418,14.4985 Z "/>
        <text fill="#000000" font-size="13" lengthAdjust="spacingAndGlyphs" textLength="53" x="40" y="20">UnitTest</text>
        <rect fill="#FEFECE" filter="url(#f1)" height="36" style="stroke: #A80036; stroke-width: 1.5;" width="95" x="5" y="400"/>
        <ellipse cx="23" cy="418" fill="#ADD1B2" rx="11" ry="11" style="stroke: #A80036; stroke-width: 1.0;"/>
        <path d="M23.8418,424.75 L21.3931,424.75 L21.3931,414.4985 L18.2471,414.4985 L18.2471,412.3569 L26.9878,412.3569 L26.9878,414.4985 L23.8418,414.4985 Z "/>
        <text fill="#000000" font-size="13" lengthAdjust="spacingAndGlyphs" textLength="53" x="40" y="420">UnitTest</text>
        <rect fill="#FEFECE" filter="url(#f1)" height="29.3105" style="stroke: #A80036; stroke-width: 1.5;" width="74" x="288.5" y="400"/>
        <text fill="#000000" font-size="13" lengthAdjust="spacingAndGlyphs" textLength="60" x="295.5" y="420">DBFacade</text>
        <rect fill="#FEFECE" filter="url(#f1)" height="36" style="stroke: #A80036; stroke-width: 1.5;" width="144" x="376.5" y="400"/>
        <ellipse cx="394.5" cy="418" fill="#ADD1B2" rx="11" ry="11" style="stroke: #A80036; stroke-width: 1.0;"/>
        <path d="M395.3418,424.75 L392.8931,424.75 L392.8931,414.4985 L389.7471,414.4985 L389.7471,412.3569 L398.4878,412.3569 L398.4878,414.4985 L395.3418,414.4985 Z "/>
        <text fill="#000000" font-size="13" lengthAdjust="spacingAndGlyphs" textLength="102" x="411.5" y="420">JDBCConnection</text>
        <rect fill="#FEFECE" filter="url(#f1)" height="29.3105" style="stroke: #A80036; stroke-width: 1.5;" width="107" x="534.5" y="400"/>
        <text fill="#000000" font-size="13" lengthAdjust="spacingAndGlyphs" textLength="93" x="541.5" y="420">JDBCStatement</text>
        <polygon fill="#A80036" points="364.5,68,374.5,72,364.5,76,368.5,72" style="stroke: #A80036; stroke-width: 1.0;"/>
        <line style="stroke: #A80036; stroke-width: 1.0;" x1="54.5" x2="370.5" y1="72" y2="72"/>
        <text fill="#000000" font-size="13" lengthAdjust="spacingAndGlyphs" textLength="120" x="61.5" y="68">get testConnection</text>
        <rect fill="#FEFECE" filter="url(#f1)" height="36" style="stroke: #A80036; stroke-width: 1.5;" width="144" x="376.5" y="51"/>
        <ellipse cx="394.5" cy="69" fill="#ADD1B2" rx="11" ry="11" style="stroke: #A80036; stroke-width: 1.0;"/>
        <path d="M395.3418,75.75 L392.8931,75.75 L392.8931,65.4985 L389.7471,65.4985 L389.7471,63.3569 L398.4878,63.3569 L398.4878,65.4985 L395.3418,65.4985 Z "/>
        <text fill="#000000" font-size="13" lengthAdjust="spacingAndGlyphs" textLength="102" x="411.5" y="71">JDBCConnection</text>
        <polygon fill="#A80036" points="65.5,119,55.5,123,65.5,127,61.5,123" style="stroke: #A80036; stroke-width: 1.0;"/>
        <line style="stroke: #A80036; stroke-width: 1.0; stroke-dasharray: 2.0,2.0;" x1="59.5" x2="449.5" y1="123" y2="123"/>
        <text fill="#000000" font-size="13" lengthAdjust="spacingAndGlyphs" textLength="70" x="71.5" y="119">connection</text>
        <polygon fill="#A80036" points="276.5,148.3105,286.5,152.3105,276.5,156.3105,280.5,152.3105" style="stroke: #A80036; stroke-width: 1.0;"/>
        <line style="stroke: #A80036; stroke-width: 1.0;" x1="54.5" x2="282.5" y1="152.3105" y2="152.3105"/>
        <text fill="#000000" font-size="13" lengthAdjust="spacingAndGlyphs" textLength="210" x="61.5" y="148.3105">setConnection( testConnection s)</text>
        <rect fill="#FEFECE" filter="url(#f1)" height="29.3105" style="stroke: #A80036; stroke-width: 1.5;" width="74" x="288.5" y="131.3105"/>
        <text fill="#000000" font-size="13" lengthAdjust="spacingAndGlyphs" textLength="60" x="295.5" y="151.3105">DBFacade</text>
        <polygon fill="#A80036" points="315.5,192.6211,325.5,196.6211,315.5,200.6211,319.5,196.6211" style="stroke: #A80036; stroke-width: 1.0;"/>
        <line style="stroke: #A80036; stroke-width: 1.0;" x1="54.5" x2="321.5" y1="196.6211" y2="196.6211"/>
        <text fill="#000000" font-size="13" lengthAdjust="spacingAndGlyphs" textLength="86" x="61.5" y="192.6211">getBuildings()</text>
        <rect fill="none" height="100.6211" style="stroke: #000000; stroke-width: 2.0;" width="377" x="278.5" y="211.9316"/>
        <polygon fill="#EEEEEE" points="278.5,211.9316,546.5,211.9316,546.5,218.9316,536.5,228.9316,278.5,228.9316,278.5,211.9316" style="stroke: #000000; stroke-width: 2.0;"/>
        <text fill="#000000" font-size="13" font-weight="bold" lengthAdjust="spacingAndGlyphs" textLength="223" x="293.5" y="225.9316">implementation of getBuildings()</text>
        <polygon fill="#A80036" points="438.5,256.2422,448.5,260.2422,438.5,264.2422,442.5,260.2422" style="stroke: #A80036; stroke-width: 1.0;"/>
        <line style="stroke: #A80036; stroke-width: 1.0;" x1="327.5" x2="444.5" y1="260.2422" y2="260.2422"/>
        <polygon fill="#A80036" points="522.5,270.2422,532.5,274.2422,522.5,278.2422,526.5,274.2422" style="stroke: #A80036; stroke-width: 1.0;"/>
        <line style="stroke: #A80036; stroke-width: 1.0;" x1="327.5" x2="528.5" y1="274.2422" y2="274.2422"/>
        <rect fill="#FEFECE" filter="url(#f1)" height="29.3105" style="stroke: #A80036; stroke-width: 1.5;" width="107" x="534.5" y="268.2422"/>
        <text fill="#000000" font-size="13" lengthAdjust="spacingAndGlyphs" textLength="93" x="541.5" y="288.2422">JDBCStatement</text>
        <polygon fill="#A80036" points="65.5,336.5527,55.5,340.5527,65.5,344.5527,61.5,340.5527" style="stroke: #A80036; stroke-width: 1.0;"/>
        <line style="stroke: #A80036; stroke-width: 1.0;" x1="59.5" x2="326.5" y1="340.5527" y2="340.5527"/>
        <text fill="#000000" font-size="13" lengthAdjust="spacingAndGlyphs" textLength="136" x="71.5" y="336.5527">return List&lt;Building&gt;</text>
        <line style="stroke: #A80036; stroke-width: 1.0;" x1="54.5" x2="96.5" y1="370.1738" y2="370.1738"/>
        <line style="stroke: #A80036; stroke-width: 1.0;" x1="96.5" x2="96.5" y1="370.1738" y2="383.1738"/>
        <line style="stroke: #A80036; stroke-width: 1.0;" x1="54.5" x2="96.5" y1="383.1738" y2="383.1738"/>
        <polygon fill="#A80036" points="64.5,379.1738,54.5,383.1738,64.5,387.1738,60.5,383.1738" style="stroke: #A80036; stroke-width: 1.0;"/>
        <text fill="#000000" font-size="13" lengthAdjust="spacingAndGlyphs" textLength="161" x="61.5" y="365.8633">assert list has 5 elements</text>
    </g>
</svg>
