<?xml version="1.0" encoding="UTF-8"?><svg xmlns="http://www.w3.org/2000/svg" xmlns:xlink="http://www.w3.org/1999/xlink" height="499pt" style="width:733px;height:499px;" version="1.1" viewBox="0 0 733 499" width="733pt">
    <defs>
        <filter height="300%" id="f1" width="300%" x="-1" y="-1">
            <feGaussianBlur result="blurOut" stdDeviation="2.0"/>
            <feColorMatrix in="blurOut" result="blurOut2" type="matrix" values="0 0 0 0 0 0 0 0 0 0 0 0 0 0 0 0 0 0 .4 0"/>
            <feOffset dx="4.0" dy="4.0" in="blurOut2" result="blurOut3"/>
            <feBlend in="SourceGraphic" in2="blurOut3" mode="normal"/>
        </filter>
    </defs>
    <g>
        <rect fill="#FEFECE" filter="url(#f1)" height="44.6211" style="stroke: #A80036; stroke-width: 1.5;" width="140" x="436.5" y="147.5527"/>
        <text fill="#000000" font-size="13" lengthAdjust="spacingAndGlyphs" textLength="95" x="459" y="167.5527">UpdateBuilding</text>
        <text fill="#000000" font-size="13" lengthAdjust="spacingAndGlyphs" textLength="126" x="443.5" y="182.8633">(Subject Under Test)</text>
        <rect fill="#FFFFFF" filter="url(#f1)" height="85.9316" style="stroke: #000000; stroke-width: 2.0;" width="365" x="244" y="243.4844"/>
        <line style="stroke: #A80036; stroke-width: 1.0; stroke-dasharray: 5.0,5.0;" x1="54" x2="54" y1="49.6211" y2="447.3477"/>
        <line style="stroke: #A80036; stroke-width: 1.0; stroke-dasharray: 5.0,5.0;" x1="234.5" x2="234.5" y1="49.6211" y2="447.3477"/>
        <line style="stroke: #A80036; stroke-width: 1.0; stroke-dasharray: 5.0,5.0;" x1="345.5" x2="345.5" y1="49.6211" y2="447.3477"/>
        <line style="stroke: #A80036; stroke-width: 1.0; stroke-dasharray: 5.0,5.0;" x1="508.5" x2="508.5" y1="187.3633" y2="447.3477"/>
        <line style="stroke: #A80036; stroke-width: 1.0; stroke-dasharray: 5.0,5.0;" x1="659.5" x2="659.5" y1="49.6211" y2="447.3477"/>
        <rect fill="#FEFECE" filter="url(#f1)" height="36" style="stroke: #A80036; stroke-width: 1.5;" width="95" x="5" y="8.6211"/>
        <ellipse cx="23" cy="26.6211" fill="#ADD1B2" rx="11" ry="11" style="stroke: #A80036; stroke-width: 1.0;"/>
        <path d="M23.8418,33.3711 L21.3931,33.3711 L21.3931,23.1196 L18.2471,23.1196 L18.2471,20.978 L26.9878,20.978 L26.9878,23.1196 L23.8418,23.1196 Z "/>
        <text fill="#000000" font-size="13" lengthAdjust="spacingAndGlyphs" textLength="53" x="40" y="28.6211">UnitTest</text>
        <rect fill="#FEFECE" filter="url(#f1)" height="36" style="stroke: #A80036; stroke-width: 1.5;" width="95" x="5" y="445.3789"/>
        <ellipse cx="23" cy="463.3789" fill="#ADD1B2" rx="11" ry="11" style="stroke: #A80036; stroke-width: 1.0;"/>
        <path d="M23.8418,470.1289 L21.3931,470.1289 L21.3931,459.8774 L18.2471,459.8774 L18.2471,457.7358 L26.9878,457.7358 L26.9878,459.8774 L23.8418,459.8774 Z "/>
        <text fill="#000000" font-size="13" lengthAdjust="spacingAndGlyphs" textLength="53" x="40" y="465.3789">UnitTest</text>
        <rect fill="#FEFECE" filter="url(#f1)" height="36" style="stroke: #A80036; stroke-width: 1.5;" width="102" x="181.5" y="8.6211"/>
        <ellipse cx="199.5" cy="26.6211" fill="#B2D1AD" rx="11" ry="11" style="stroke: #A80036; stroke-width: 1.0;"/>
        <path d="M195.2139,20.228 L198.1357,20.228 L199.6133,25.665 L201.0825,20.228 L204.021,20.228 L204.021,32.6211 L201.9126,32.6211 L201.9126,22.6934 L200.6011,28.1138 L198.6504,28.1138 L197.3223,22.6934 L197.3223,32.6211 L195.2139,32.6211 Z "/>
        <text fill="#000000" font-size="13" lengthAdjust="spacingAndGlyphs" textLength="60" x="216.5" y="28.6211">Response</text>
        <rect fill="#FEFECE" filter="url(#f1)" height="36" style="stroke: #A80036; stroke-width: 1.5;" width="102" x="181.5" y="445.3789"/>
        <ellipse cx="199.5" cy="463.3789" fill="#B2D1AD" rx="11" ry="11" style="stroke: #A80036; stroke-width: 1.0;"/>
        <path d="M195.2139,456.9858 L198.1357,456.9858 L199.6133,462.4229 L201.0825,456.9858 L204.021,456.9858 L204.021,469.3789 L201.9126,469.3789 L201.9126,459.4512 L200.6011,464.8716 L198.6504,464.8716 L197.3223,459.4512 L197.3223,469.3789 L195.2139,469.3789 Z "/>
        <text fill="#000000" font-size="13" lengthAdjust="spacingAndGlyphs" textLength="60" x="216.5" y="465.3789">Response</text>
        <rect fill="#FEFECE" filter="url(#f1)" height="36" style="stroke: #A80036; stroke-width: 1.5;" width="92" x="297.5" y="8.6211"/>
        <ellipse cx="315.5" cy="26.6211" fill="#B2D1AD" rx="11" ry="11" style="stroke: #A80036; stroke-width: 1.0;"/>
        <path d="M311.2139,20.228 L314.1357,20.228 L315.6133,25.665 L317.0825,20.228 L320.021,20.228 L320.021,32.6211 L317.9126,32.6211 L317.9126,22.6934 L316.6011,28.1138 L314.6504,28.1138 L313.3223,22.6934 L313.3223,32.6211 L311.2139,32.6211 Z "/>
        <text fill="#000000" font-size="13" lengthAdjust="spacingAndGlyphs" textLength="50" x="332.5" y="28.6211">Request</text>
        <rect fill="#FEFECE" filter="url(#f1)" height="36" style="stroke: #A80036; stroke-width: 1.5;" width="92" x="297.5" y="445.3789"/>
        <ellipse cx="315.5" cy="463.3789" fill="#B2D1AD" rx="11" ry="11" style="stroke: #A80036; stroke-width: 1.0;"/>
        <path d="M311.2139,456.9858 L314.1357,456.9858 L315.6133,462.4229 L317.0825,456.9858 L320.021,456.9858 L320.021,469.3789 L317.9126,469.3789 L317.9126,459.4512 L316.6011,464.8716 L314.6504,464.8716 L313.3223,459.4512 L313.3223,469.3789 L311.2139,469.3789 Z "/>
        <text fill="#000000" font-size="13" lengthAdjust="spacingAndGlyphs" textLength="50" x="332.5" y="465.3789">Request</text>
        <rect fill="#FEFECE" filter="url(#f1)" height="44.6211" style="stroke: #A80036; stroke-width: 1.5;" width="140" x="436.5" y="445.3789"/>
        <text fill="#000000" font-size="13" lengthAdjust="spacingAndGlyphs" textLength="95" x="459" y="465.3789">UpdateBuilding</text>
        <text fill="#000000" font-size="13" lengthAdjust="spacingAndGlyphs" textLength="126" x="443.5" y="480.6895">(Subject Under Test)</text>
        <rect fill="#FEFECE" filter="url(#f1)" height="36" style="stroke: #A80036; stroke-width: 1.5;" width="134" x="590.5" y="8.6211"/>
        <ellipse cx="608.5" cy="26.6211" fill="#B2D1AD" rx="11" ry="11" style="stroke: #A80036; stroke-width: 1.0;"/>
        <path d="M604.2139,20.228 L607.1357,20.228 L608.6133,25.665 L610.0825,20.228 L613.021,20.228 L613.021,32.6211 L610.9126,32.6211 L610.9126,22.6934 L609.6011,28.1138 L607.6504,28.1138 L606.3223,22.6934 L606.3223,32.6211 L604.2139,32.6211 Z "/>
        <text fill="#000000" font-size="13" lengthAdjust="spacingAndGlyphs" textLength="92" x="625.5" y="28.6211">DomainFacade</text>
        <rect fill="#FEFECE" filter="url(#f1)" height="36" style="stroke: #A80036; stroke-width: 1.5;" width="134" x="590.5" y="445.3789"/>
        <ellipse cx="608.5" cy="463.3789" fill="#B2D1AD" rx="11" ry="11" style="stroke: #A80036; stroke-width: 1.0;"/>
        <path d="M604.2139,456.9858 L607.1357,456.9858 L608.6133,462.4229 L610.0825,456.9858 L613.021,456.9858 L613.021,469.3789 L610.9126,469.3789 L610.9126,459.4512 L609.6011,464.8716 L607.6504,464.8716 L606.3223,459.4512 L606.3223,469.3789 L604.2139,469.3789 Z "/>
        <text fill="#000000" font-size="13" lengthAdjust="spacingAndGlyphs" textLength="92" x="625.5" y="465.3789">DomainFacade</text>
        <polygon fill="#A80036" points="333.5,76.6211,343.5,80.6211,333.5,84.6211,337.5,80.6211" style="stroke: #A80036; stroke-width: 1.0;"/>
        <line style="stroke: #A80036; stroke-width: 1.0;" x1="54.5" x2="339.5" y1="80.6211" y2="80.6211"/>
        <text fill="#000000" font-size="13" lengthAdjust="spacingAndGlyphs" textLength="138" x="61.5" y="76.6211">setParameter("action")</text>
        <polygon fill="#A80036" points="333.5,105.9316,343.5,109.9316,333.5,113.9316,337.5,109.9316" style="stroke: #A80036; stroke-width: 1.0;"/>
        <line style="stroke: #A80036; stroke-width: 1.0;" x1="54.5" x2="339.5" y1="109.9316" y2="109.9316"/>
        <text fill="#000000" font-size="13" lengthAdjust="spacingAndGlyphs" textLength="111" x="61.5" y="105.9316">setParameter("id")</text>
        <polygon fill="#A80036" points="333.5,135.2422,343.5,139.2422,333.5,143.2422,337.5,139.2422" style="stroke: #A80036; stroke-width: 1.0;"/>
        <line style="stroke: #A80036; stroke-width: 1.0;" x1="54.5" x2="339.5" y1="139.2422" y2="139.2422"/>
        <text fill="#000000" font-size="13" lengthAdjust="spacingAndGlyphs" textLength="111" x="61.5" y="135.2422">setParameter("...")</text>
        <polygon fill="#A80036" points="424.5,164.5527,434.5,168.5527,424.5,172.5527,428.5,168.5527" style="stroke: #A80036; stroke-width: 1.0;"/>
        <line style="stroke: #A80036; stroke-width: 1.0;" x1="54.5" x2="430.5" y1="168.5527" y2="168.5527"/>
        <text fill="#000000" font-size="13" lengthAdjust="spacingAndGlyphs" textLength="166" x="61.5" y="164.5527">processRequest( req, resp)</text>
        <rect fill="#FEFECE" filter="url(#f1)" height="44.6211" style="stroke: #A80036; stroke-width: 1.5;" width="140" x="436.5" y="147.5527"/>
        <text fill="#000000" font-size="13" lengthAdjust="spacingAndGlyphs" textLength="95" x="459" y="167.5527">UpdateBuilding</text>
        <text fill="#000000" font-size="13" lengthAdjust="spacingAndGlyphs" textLength="126" x="443.5" y="182.8633">(Subject Under Test)</text>
        <polygon fill="#A80036" points="356.5,224.1738,346.5,228.1738,356.5,232.1738,352.5,228.1738" style="stroke: #A80036; stroke-width: 1.0;"/>
        <line style="stroke: #A80036; stroke-width: 1.0;" x1="350.5" x2="507.5" y1="228.1738" y2="228.1738"/>
        <text fill="#000000" font-size="13" lengthAdjust="spacingAndGlyphs" textLength="139" x="362.5" y="224.1738">getParameter("action")</text>
        <rect fill="none" height="85.9316" style="stroke: #000000; stroke-width: 2.0;" width="365" x="244" y="243.4844"/>
        <polygon fill="#EEEEEE" points="244,243.4844,570,243.4844,570,250.4844,560,260.4844,244,260.4844,244,243.4844" style="stroke: #000000; stroke-width: 2.0;"/>
        <text fill="#000000" font-size="13" font-weight="bold" lengthAdjust="spacingAndGlyphs" textLength="281" x="259" y="257.4844">get parameters and make building object</text>
        <polygon fill="#A80036" points="356.5,277.7949,346.5,281.7949,356.5,285.7949,352.5,281.7949" style="stroke: #A80036; stroke-width: 1.0;"/>
        <line style="stroke: #A80036; stroke-width: 1.0;" x1="350.5" x2="507.5" y1="281.7949" y2="281.7949"/>
        <text fill="#000000" font-size="13" lengthAdjust="spacingAndGlyphs" textLength="112" x="362.5" y="277.7949">getParameter("id")</text>
        <polygon fill="#FBFB77" filter="url(#f1)" points="254,295.1055,254,320.1055,595,320.1055,595,305.1055,585,295.1055,254,295.1055" style="stroke: #A80036; stroke-width: 1.0;"/>
        <line style="stroke: #A80036; stroke-width: 1.0;" x1="585" x2="585" y1="295.1055" y2="305.1055"/>
        <line style="stroke: #A80036; stroke-width: 1.0;" x1="595" x2="585" y1="305.1055" y2="305.1055"/>
        <text fill="#000000" font-size="13" lengthAdjust="spacingAndGlyphs" textLength="320" x="260" y="313.1055">pick out other paramters and make building object</text>
        <polygon fill="#A80036" points="647.5,353.416,657.5,357.416,647.5,361.416,651.5,357.416" style="stroke: #A80036; stroke-width: 1.0;"/>
        <line style="stroke: #A80036; stroke-width: 1.0;" x1="508.5" x2="653.5" y1="357.416" y2="357.416"/>
        <text fill="#000000" font-size="13" lengthAdjust="spacingAndGlyphs" textLength="118" x="515.5" y="353.416">updateBuilding( b )</text>
        <polygon fill="#A80036" points="245.5,382.7266,235.5,386.7266,245.5,390.7266,241.5,386.7266" style="stroke: #A80036; stroke-width: 1.0;"/>
        <line style="stroke: #A80036; stroke-width: 1.0;" x1="239.5" x2="507.5" y1="386.7266" y2="386.7266"/>
        <text fill="#000000" font-size="13" lengthAdjust="spacingAndGlyphs" textLength="151" x="251.5" y="382.7266">redirect to buildings.jsp</text>
        <line style="stroke: #A80036; stroke-width: 1.0;" x1="54.5" x2="96.5" y1="416.3477" y2="416.3477"/>
        <line style="stroke: #A80036; stroke-width: 1.0;" x1="96.5" x2="96.5" y1="416.3477" y2="429.3477"/>
        <line style="stroke: #A80036; stroke-width: 1.0;" x1="54.5" x2="96.5" y1="429.3477" y2="429.3477"/>
        <polygon fill="#A80036" points="64.5,425.3477,54.5,429.3477,64.5,433.3477,60.5,429.3477" style="stroke: #A80036; stroke-width: 1.0;"/>
        <text fill="#000000" font-size="13" lengthAdjust="spacingAndGlyphs" textLength="166" x="61.5" y="412.0371">Verify the building created</text>
    </g>
</svg>
